<?xml version="1.0" standalone="no"?>
<!DOCTYPE svg PUBLIC "-//W3C//DTD SVG 20010904//EN"
 "http://www.w3.org/TR/2001/REC-SVG-20010904/DTD/svg10.dtd">
<svg version="1.0" xmlns="http://www.w3.org/2000/svg"
 width="512.000000pt" height="512.000000pt" viewBox="0 0 512.000000 512.000000"
 preserveAspectRatio="xMidYMid meet">

<g transform="translate(0.000000,512.000000) scale(0.100000,-0.100000)"
fill="#000000" stroke="none">
<path d="M1353 5101 c-99 -34 -169 -111 -193 -213 -18 -75 -7 -139 45 -243 25
-50 45 -96 45 -101 0 -5 -72 -9 -163 -9 -137 0 -174 -4 -240 -23 -148 -42
-268 -116 -301 -186 -18 -38 -21 -121 -7 -159 8 -20 5 -29 -16 -48 -81 -77
-189 -285 -233 -450 -32 -119 -39 -353 -15 -470 33 -167 101 -314 191 -417
l44 -50 0 -889 c0 -527 4 -932 10 -996 33 -345 248 -641 562 -773 125 -52 200
-66 395 -71 l181 -5 26 25 c31 31 33 66 7 98 -18 23 -26 24 -198 30 -208 7
-266 19 -403 87 -80 39 -110 61 -186 137 -144 143 -214 285 -234 477 -10 99
-14 1748 -4 1748 3 0 18 -8 32 -19 80 -56 258 -128 398 -162 71 -17 266 -48
302 -49 9 0 12 -85 12 -394 0 -383 1 -394 21 -420 27 -34 77 -36 107 -3 22 23
22 27 22 413 l0 390 178 12 c334 22 582 91 784 218 21 13 39 24 42 24 2 0 9
-28 16 -62 6 -34 27 -105 46 -157 128 -360 441 -639 818 -732 106 -26 307 -35
417 -20 95 14 210 43 275 71 l44 19 0 -204 c0 -120 -4 -215 -11 -232 -13 -35
-56 -81 -89 -97 -18 -8 -385 -12 -1360 -16 l-1335 -5 -53 -28 c-118 -62 -183
-162 -190 -293 -7 -134 43 -238 151 -309 104 -68 31 -65 1465 -65 1179 0 1297
-1 1329 -16 120 -58 123 -231 3 -291 l-44 -23 -1037 0 c-1033 0 -1036 0 -1063
-21 -36 -28 -36 -80 1 -108 l26 -21 1061 2 1061 3 57 28 c65 32 121 90 151
156 33 72 31 188 -6 263 -31 64 -87 118 -152 150 l-45 22 0 210 0 211 45 19
c57 23 125 90 156 153 23 46 24 57 27 320 l3 271 67 50 c206 153 362 386 429
640 34 129 43 344 19 477 -49 288 -210 553 -434 720 l-81 60 -1 196 c0 224 -8
266 -68 344 -27 36 -57 60 -106 85 l-69 35 -274 3 -273 3 -31 -31 c-25 -25
-30 -36 -24 -58 14 -57 13 -57 308 -62 262 -5 273 -6 309 -28 64 -40 78 -85
78 -256 0 -137 -1 -148 -17 -141 -150 61 -291 88 -453 88 -267 0 -513 -84
-712 -243 -34 -28 -65 -47 -68 -43 -4 5 -14 37 -24 73 -33 124 -123 292 -204
382 -31 35 -33 40 -26 85 4 26 8 55 8 63 1 13 41 16 276 20 151 3 281 9 288
13 42 27 33 104 -14 126 -17 7 -127 11 -340 11 l-314 0 -70 35 c-112 56 -197
76 -350 82 -92 3 -157 0 -206 -9 l-71 -14 -31 106 c-35 122 -95 265 -144 347
-76 128 -219 182 -355 134z m155 -145 c41 -22 66 -54 109 -141 45 -91 74 -168
102 -273 l20 -73 -56 -24 c-30 -14 -64 -25 -74 -25 -10 0 -54 14 -98 31 -80
32 -80 32 -97 83 -9 28 -38 99 -65 157 -27 58 -49 117 -49 130 0 14 10 45 23
69 36 70 119 100 185 66z m-178 -599 c47 -14 112 -38 145 -53 88 -41 175 -39
270 3 140 63 214 78 380 78 136 -1 158 -3 230 -28 44 -14 102 -40 128 -57 43
-27 48 -34 45 -63 -3 -28 -10 -36 -58 -59 -106 -53 -198 -71 -386 -73 -216 -4
-223 -7 -308 -136 -49 -76 -138 -159 -170 -159 -32 0 -124 84 -167 153 -82
131 -97 138 -313 142 -188 3 -281 20 -386 73 -47 23 -55 31 -58 58 -3 26 3 36
27 53 43 31 110 59 193 81 106 29 309 23 428 -13z m-563 -351 c101 -37 255
-58 387 -54 l108 3 48 -70 c56 -82 149 -174 208 -204 53 -27 123 -27 178 -1
56 28 149 120 205 205 l46 70 109 -3 c131 -4 284 17 386 53 110 40 114 39 170
-29 81 -101 152 -266 178 -415 l11 -63 -46 -69 c-107 -160 -180 -366 -192
-542 l-6 -88 -54 -43 c-253 -200 -741 -289 -1215 -221 -487 70 -787 308 -863
684 -26 124 -17 325 19 445 33 108 99 240 162 319 51 66 44 65 161 23z m3053
-226 c419 -52 743 -332 862 -746 20 -68 23 -103 23 -249 0 -147 -3 -181 -23
-255 -50 -182 -136 -327 -277 -465 -396 -390 -1034 -379 -1417 23 -119 125
-201 269 -250 437 -20 70 -23 102 -23 255 0 139 4 188 18 240 87 306 266 529
532 660 184 91 364 123 555 100z m130 -2950 l0 -200 -1257 2 -1258 3 -47 28
c-63 37 -98 96 -98 165 0 64 13 98 53 141 61 64 -27 60 1350 61 l1257 0 0
-200z"/>
<path d="M930 3520 c-17 -17 -20 -33 -20 -114 0 -90 1 -96 26 -115 36 -29 60
-26 96 9 29 30 30 32 27 116 -4 76 -7 88 -28 105 -30 25 -76 24 -101 -1z"/>
<path d="M2180 3520 c-17 -17 -20 -33 -20 -114 0 -90 1 -96 26 -115 34 -27 57
-26 90 2 22 19 28 34 32 80 9 109 -18 167 -78 167 -17 0 -39 -9 -50 -20z"/>
<path d="M1420 3423 c-55 -20 -67 -82 -25 -132 72 -85 227 -112 335 -59 103
51 141 121 92 170 -31 31 -72 27 -122 -13 -36 -29 -50 -34 -95 -34 -44 0 -59
5 -92 31 -42 34 -70 45 -93 37z"/>
<path d="M3595 3559 c-311 -48 -567 -281 -645 -584 -27 -107 -27 -273 0 -381
90 -352 399 -594 760 -594 433 0 780 347 780 779 0 307 -162 570 -437 709
-116 59 -326 92 -458 71z m230 -154 c235 -42 440 -235 500 -470 19 -75 19
-221 0 -302 -40 -172 -166 -332 -319 -410 -95 -48 -157 -65 -266 -70 -126 -7
-197 8 -315 67 -142 69 -248 187 -308 338 -25 64 -31 96 -35 185 -6 135 8 208
60 317 82 171 265 311 448 345 97 17 138 17 235 0z"/>
<path d="M3667 3178 c-30 -23 -37 -68 -37 -227 0 -164 9 -214 40 -231 10 -6
83 -10 163 -10 137 0 144 1 165 23 27 29 28 67 3 98 -17 22 -28 24 -120 27
l-101 4 0 144 c0 134 -1 144 -22 164 -25 23 -66 26 -91 8z"/>
</g>
</svg>
